<svg width="20" height="20" viewBox="0 0 20 20" fill="none" xmlns="http://www.w3.org/2000/svg">
<path d="M15.7812 19.4688H6.25C4.8125 19.4688 3.59375 18.375 3.4375 16.9688C3.4375 16.9062 3.40625 16.875 3.40625 16.8125V2.46875C3.40625 1.40625 4.25 0.5625 5.3125 0.5625H14.625C15.6875 0.5625 16.5312 1.40625 16.5312 2.46875V13.3438C16.5312 14.4063 15.6875 15.25 14.625 15.25H6.25C5.875 15.25 5.5 15.4062 5.25 15.6562C4.96875 15.9062 4.84375 16.2812 4.84375 16.6562C4.84375 17.4375 5.46875 18.0625 6.25 18.0625H15.7812C16.1562 18.0625 16.5 18.375 16.5 18.7812C16.5 19.1875 16.1875 19.4688 15.7812 19.4688ZM5.34375 1.96875C5.0625 1.96875 4.84375 2.1875 4.84375 2.46875V14.2188C5.28125 13.9688 5.75 13.8438 6.25 13.8438H14.6562C14.9375 13.8438 15.1562 13.625 15.1562 13.3438V2.46875C15.1562 2.1875 14.9375 1.96875 14.6562 1.96875H5.34375V1.96875Z" fill="#F8F9FA"/>
<path d="M12.25 5.5H7.8125C7.4375 5.5 7.09375 5.1875 7.09375 4.78125C7.09375 4.375 7.40625 4.0625 7.8125 4.0625H12.25C12.625 4.0625 12.9687 4.375 12.9687 4.78125C12.9687 5.1875 12.6562 5.5 12.25 5.5Z" fill="#F8F9FA"/>
</svg>
