<svg width="20" height="20" viewBox="0 0 20 20" fill="none" xmlns="http://www.w3.org/2000/svg">
<g id="check2-all" clip-path="url(#clip0_271_4401)">
<path id="Vector" fill-rule="evenodd" clip-rule="evenodd" d="M15.4423 4.55862C15.5005 4.61667 15.5467 4.68564 15.5782 4.76158C15.6097 4.83751 15.6259 4.91891 15.6259 5.00112C15.6259 5.08333 15.6097 5.16473 15.5782 5.24066C15.5467 5.31659 15.5005 5.38556 15.4423 5.44362L6.69231 14.1936C6.63426 14.2518 6.56529 14.298 6.48935 14.3295C6.41342 14.361 6.33202 14.3772 6.24981 14.3772C6.1676 14.3772 6.0862 14.361 6.01027 14.3295C5.93434 14.298 5.86537 14.2518 5.80731 14.1936L1.43231 9.81862C1.31495 9.70126 1.24902 9.54209 1.24902 9.37612C1.24902 9.21015 1.31495 9.05098 1.43231 8.93362C1.54967 8.81626 1.70884 8.75033 1.87481 8.75033C2.04078 8.75033 2.19995 8.81626 2.31731 8.93362L6.24981 12.8674L14.5573 4.55862C14.6154 4.50041 14.6843 4.45423 14.7603 4.42273C14.8362 4.39122 14.9176 4.375 14.9998 4.375C15.082 4.375 15.1634 4.39122 15.2394 4.42273C15.3153 4.45423 15.3843 4.50041 15.4423 4.55862Z" fill="#6C757D"/>
<path id="Vector_2" d="M7.81231 10.0545L6.69231 8.93329C6.57496 8.81593 6.41578 8.75 6.24981 8.75C6.08384 8.75 5.92467 8.81593 5.80731 8.93329C5.68995 9.05065 5.62402 9.20982 5.62402 9.37579C5.62402 9.54176 5.68995 9.70093 5.80731 9.81829L6.92856 10.9383L7.81231 10.0545ZM9.06231 13.072L10.1823 14.1933C10.2404 14.2515 10.3093 14.2977 10.3853 14.3292C10.4612 14.3607 10.5426 14.3769 10.6248 14.3769C10.707 14.3769 10.7884 14.3607 10.8644 14.3292C10.9403 14.2977 11.0093 14.2515 11.0673 14.1933L19.8173 5.44329C19.9347 5.32593 20.0006 5.16676 20.0006 5.00079C20.0006 4.83482 19.9347 4.67565 19.8173 4.55829C19.7 4.44093 19.5408 4.375 19.3748 4.375C19.2088 4.375 19.0497 4.44093 18.9323 4.55829L10.6248 12.867L9.94606 12.1883L9.06231 13.072Z" fill="#6C757D"/>
</g>
<defs>
<clipPath id="clip0_271_4401">
<rect width="20" height="20" fill="white"/>
</clipPath>
</defs>
</svg>
