<svg width="20" height="20" viewBox="0 0 20 20" fill="none" xmlns="http://www.w3.org/2000/svg">
<g clip-path="url(#clip0_339_510)">
<path d="M10.0312 6.125C7.90625 6.125 6.15625 7.875 6.15625 10C6.15625 12.1562 7.90625 13.875 10.0312 13.875C12.1562 13.875 13.9062 12.1562 13.9062 10C13.9062 7.875 12.1562 6.125 10.0312 6.125ZM10.0312 12.5C8.65625 12.5 7.5625 11.375 7.5625 10.0312C7.5625 8.65625 8.65625 7.5625 10.0312 7.5625C11.4062 7.5625 12.5 8.65625 12.5 10C12.5 11.375 11.375 12.5 10.0312 12.5Z" fill="#E9ECEF"/>
<path d="M18.9684 11.9062L17.2184 10.9375C17.2809 10.5938 17.3121 10.25 17.3121 9.90625C17.3121 9.53125 17.2809 9.1875 17.2496 8.84375L19.0309 7.84375C19.4371 7.625 19.5934 7.125 19.4059 6.6875L17.5934 3.625C17.3746 3.25 16.8746 3.09375 16.4684 3.25L14.5934 4.28125C14.4996 4.21875 14.4059 4.125 14.3434 4.0625C13.9996 3.78125 13.6871 3.5 13.1871 3.25C13.1559 3.25 13.1246 3.21875 13.1246 3.15625V2.03125C13.1246 1.21875 12.4684 0.53125 11.6246 0.53125H8.40587C7.59337 0.53125 6.90587 1.21875 6.90587 2.03125V3.25C6.90587 3.28125 6.87462 3.3125 6.84337 3.34375C6.37462 3.5625 6.03087 3.875 5.65587 4.15625C5.59337 4.21875 5.49962 4.28125 5.43712 4.34375L3.78087 3.40625C3.15587 3.0625 2.62462 3.28125 2.40587 3.65625L0.687119 6.625C0.593369 6.875 0.562119 7.125 0.624619 7.375C0.687119 7.625 0.84337 7.8125 1.06212 7.9375L2.81212 8.875C2.74962 9.1875 2.74962 9.53125 2.74962 9.9375C2.74962 10.2812 2.78087 10.625 2.81212 10.9687L0.999619 11.9688C0.59337 12.1875 0.437119 12.6875 0.624619 13.125L2.43712 16.1875C2.65587 16.5625 3.12462 16.7188 3.56212 16.5625L5.43712 15.5312C5.53087 15.5938 5.59337 15.6562 5.68712 15.75C6.03087 16.0625 6.37462 16.3438 6.87462 16.5625C6.90587 16.5625 6.93712 16.5938 6.93712 16.6562V18C6.93712 18.8125 7.59337 19.5 8.43712 19.5H11.6246C12.4371 19.5 13.1246 18.8125 13.1246 18V16.5625C13.1246 16.5312 13.1559 16.5 13.1871 16.4688C13.6559 16.25 13.9684 15.9687 14.3434 15.6562C14.4371 15.5937 14.4996 15.5312 14.5934 15.4375L16.2496 16.375C16.8746 16.7188 17.3746 16.5 17.6246 16.125L19.3746 13.1562C19.4996 12.9375 19.5309 12.6875 19.4684 12.4688C19.4059 12.25 19.1871 12.0312 18.9684 11.9062ZM16.5934 15L15.0934 14.1562C14.6559 13.9062 14.1559 13.9688 13.7809 14.2812C13.6246 14.4062 13.4996 14.5 13.3746 14.625C13.0621 14.9062 12.8434 15.0938 12.5309 15.2188C12.0309 15.4688 11.6871 16 11.6871 16.5625V17.9375C11.6871 18 11.6559 18.0312 11.5934 18.0312H8.40587C8.34337 18.0312 8.31212 18 8.31212 17.9375V16.5938C8.31212 16.0312 7.96837 15.5 7.46837 15.25C7.15587 15.0938 6.90587 14.9062 6.59337 14.625C6.46837 14.5312 6.34337 14.4062 6.18712 14.3125C5.96837 14.1562 5.71837 14.0625 5.43712 14.0625C5.24962 14.0625 5.03087 14.125 4.84337 14.2188L3.34337 15.0625L2.09337 12.9375L3.56212 12.125C3.99962 11.875 4.24962 11.4062 4.18712 10.875C4.15587 10.5625 4.12462 10.25 4.12462 9.9375C4.12462 9.59375 4.15587 9.28125 4.18712 9.03125C4.28087 8.5 4.03087 7.96875 3.56212 7.71875L2.18712 6.9375L3.40587 4.84375L4.90587 5.6875C5.34337 5.9375 5.84337 5.875 6.21837 5.5625C6.34337 5.46875 6.46837 5.34375 6.59337 5.25C6.90587 4.96875 7.15587 4.78125 7.46837 4.625C7.99962 4.375 8.31212 3.84375 8.31212 3.28125V2.0625C8.31212 2 8.34337 1.96875 8.40587 1.96875H11.5934C11.6559 1.96875 11.6871 2 11.6871 2.0625V3.25C11.6871 3.8125 12.0309 4.34375 12.5309 4.59375C12.8434 4.75 13.0621 4.9375 13.3746 5.1875C13.4996 5.3125 13.6246 5.40625 13.7809 5.53125C14.1559 5.84375 14.6871 5.875 15.0934 5.625L16.5934 4.78125L17.8434 6.90625L16.4059 7.71875C15.9684 7.96875 15.7184 8.5 15.8121 9.03125C15.8434 9.3125 15.8746 9.625 15.8746 9.9375C15.8746 10.25 15.8434 10.5625 15.7809 10.875C15.6871 11.4062 15.9371 11.9062 16.4059 12.1562L17.8121 12.9375L16.5934 15Z" fill="#E9ECEF"/>
</g>
<defs>
<clipPath id="clip0_339_510">
<rect width="20" height="20" fill="white"/>
</clipPath>
</defs>
</svg>
