<svg width="20" height="20" viewBox="0 0 20 20" fill="none" xmlns="http://www.w3.org/2000/svg">
<g id="Group">
<path id="Vector" d="M17.4688 4.0625H10.4062L9.65625 1.90625C9.375 1.09375 8.625 0.5625 7.78125 0.5625H2.53125C1.4375 0.5625 0.53125 1.46875 0.53125 2.5625V17.4062C0.53125 18.5 1.4375 19.4062 2.53125 19.4062H17.4375C18.5313 19.4062 19.4375 18.5 19.4375 17.4062V6.0625C19.4688 4.96875 18.5625 4.0625 17.4688 4.0625ZM18.0625 17.4375C18.0625 17.75 17.8125 18.0312 17.4688 18.0312H2.53125C2.21875 18.0312 1.9375 17.7812 1.9375 17.4375V2.5625C1.9375 2.25 2.1875 1.96875 2.53125 1.96875H7.75C8 1.96875 8.21875 2.125 8.3125 2.375L9.21875 5C9.3125 5.28125 9.59375 5.46875 9.875 5.46875H17.4375C17.75 5.46875 18.0313 5.71875 18.0313 6.0625V17.4375H18.0625Z" fill="#E9ECEF"/>
<path id="Vector_2" d="M11.6563 10.625C11.9688 10.25 12.1563 9.78125 12.1563 9.28125C12.1563 8.125 11.2188 7.21875 10.0938 7.21875C8.96875 7.21875 8.03125 8.15625 8.03125 9.28125C8.03125 9.78125 8.21875 10.25 8.53125 10.625C8.1875 10.8125 7.90625 11.0625 7.625 11.375C7 12.0938 6.65625 13.0937 6.65625 14.1562C6.65625 14.4375 6.8125 14.6875 7.03125 14.7812C7.40625 14.9687 8.6875 15.5625 10.0938 15.5625C11.5938 15.5625 12.8125 14.9687 13.1563 14.7812C13.375 14.6562 13.5313 14.4062 13.5313 14.1562C13.5 13.0937 13.1563 12.0937 12.5625 11.3437C12.2813 11.0625 11.9688 10.8125 11.6563 10.625ZM10.0625 8.625C10.4375 8.625 10.7188 8.9375 10.7188 9.28125C10.7188 9.625 10.4063 9.9375 10.0625 9.9375C9.71875 9.9375 9.40625 9.625 9.40625 9.28125C9.40625 8.9375 9.71875 8.625 10.0625 8.625ZM10.0625 14.1875C9.28125 14.1875 8.53125 13.9375 8.0625 13.75C8.15625 13.1875 8.34375 12.6562 8.65625 12.2812C9.03125 11.8437 9.53125 11.5937 10.0312 11.5937C10.5625 11.5937 11.0625 11.8437 11.4063 12.2812C11.7188 12.6562 11.9375 13.1875 12.0313 13.75C11.625 13.9375 10.9063 14.1875 10.0625 14.1875Z" fill="#E9ECEF"/>
</g>
</svg>
