<svg width="20" height="20" viewBox="0 0 20 20" fill="none" xmlns="http://www.w3.org/2000/svg">
<path d="M19 6.6875L10.4688 3.59375C10.1875 3.5 9.875 3.5 9.59375 3.59375L1 6.6875C0.71875 6.78125 0.53125 7.0625 0.53125 7.34375C0.53125 7.625 0.71875 7.90625 1 8L4.40625 9.21875V10.8437C4.40625 13.9375 6.90625 16.4375 10 16.4375C13.0938 16.4375 15.5938 13.9375 15.5938 10.8437V9.21875L17.4375 8.5625V11.9062C17.4375 12.2812 17.75 12.625 18.1562 12.625C18.5625 12.625 18.875 12.3125 18.875 11.9062V8.0625L19.0312 8C19.3125 7.90625 19.5 7.625 19.5 7.34375C19.5 7.0625 19.2812 6.78125 19 6.6875ZM14.1875 10.875C14.1875 13.1875 12.3125 15.0625 10 15.0625C7.6875 15.0625 5.8125 13.1875 5.8125 10.875V9.75L9.5625 11.0937C9.71875 11.1562 9.84375 11.1562 10 11.1562C10.1562 11.1562 10.3125 11.125 10.4375 11.0937L14.1875 9.75V10.875ZM14.625 8.09375L10 9.78125L5.375 8.125C5.375 8.125 5.375 8.125 5.34375 8.125L3.3125 7.375L10 4.9375L16.6875 7.34375L14.625 8.09375Z" fill="#E9ECEF"/>
</svg>
