<svg width="133" height="32" viewBox="0 0 133 32" fill="none" xmlns="http://www.w3.org/2000/svg">
<g id="Logo" clip-path="url(#clip0_1251_1076)">
<path id="Vector" d="M4.6952 2.49219H29.0622V14.5596H4.6952L0.673828 7.67972L4.6952 2.49219Z" fill="white"/>
<path id="Vector_2" d="M28.203 15.5156H3.83594V27.5831H28.203L32.2244 20.7031L28.203 15.5156Z" fill="white"/>
<path id="Vector_3" fill-rule="evenodd" clip-rule="evenodd" d="M6.48403 0.101563L31.5078 0.101562V3.26559H6.48403C4.86267 3.26559 4.22915 3.79357 3.8724 4.39125C3.40963 5.16656 3.21127 6.40387 3.21127 8.15879C3.21127 9.91372 3.40963 11.151 3.8724 11.9264C4.22915 12.5241 4.86268 13.052 6.48403 13.052H26.6722C27.8815 13.052 28.9549 13.2649 29.8709 13.7357C30.8033 14.2149 31.4835 14.9161 31.9578 15.7434C32.8566 17.311 32.9971 19.3107 32.9971 21.1093C32.9971 22.9077 32.8566 24.9075 31.9578 26.475C31.4835 27.3024 30.8033 28.0035 29.8709 28.4827C28.9549 28.9536 27.8815 29.1664 26.6722 29.1664H0.607312V26.0025H26.6722C27.5192 26.0025 28.0669 25.8529 28.4258 25.6684C28.7684 25.4923 29.0172 25.2451 29.2146 24.9008C29.6596 24.1248 29.8346 22.887 29.8346 21.1093C29.8346 19.3315 29.6596 18.0937 29.2146 17.3178C29.0172 16.9733 28.7684 16.7262 28.4258 16.5501C28.0669 16.3655 27.5192 16.2161 26.6722 16.2161H6.48403C3.99282 16.2161 2.19936 15.2945 1.15726 13.5486C0.221182 11.9803 0.0488281 9.98003 0.0488281 8.15879C0.0488281 6.33756 0.221182 4.33726 1.15726 2.76899C2.19936 1.02311 3.99282 0.101563 6.48403 0.101563Z" fill="#3D8BFD"/>
<path id="Vector_4" d="M9.76855 8.57833C9.76855 7.87061 10.3423 7.29688 11.05 7.29688H29.0808V9.65477H10.845C10.2505 9.65477 9.76855 9.17284 9.76855 8.57833Z" fill="#B1C5D4"/>
<path id="Vector_5" d="M11.5586 21.5547H18.3247V32.0033L14.9416 29.2L11.5586 32.0033V21.5547Z" fill="#11F1FF"/>
<path id="Vector_6" d="M23.1297 21.6147C23.1297 20.9301 22.5747 20.375 21.89 20.375H3.81738V22.6561H22.0884C22.6635 22.6561 23.1297 22.1899 23.1297 21.6147Z" fill="#B1C5D4"/>
<path id="Vector_7" d="M48.2359 23.7366C45.7433 23.7366 43.2282 22.9956 41.8359 21.9177L43.071 19.178C44.3959 20.1436 46.3721 20.8173 48.2584 20.8173C50.4142 20.8173 51.29 20.0987 51.29 19.1331C51.29 16.1914 42.1503 18.2124 42.1503 12.3738C42.1503 9.70153 44.3061 7.47837 48.7749 7.47837C50.751 7.47837 52.7721 7.94995 54.2317 8.87065L53.1089 11.6328C51.6493 10.8019 50.1447 10.3977 48.7524 10.3977C46.5966 10.3977 45.7658 11.2061 45.7658 12.1942C45.7658 15.091 54.9054 13.0924 54.9054 18.8636C54.9054 21.491 52.7272 23.7366 48.2359 23.7366ZM68.9337 15.2931C70.6852 15.8545 71.808 17.2019 71.808 19.178C71.808 21.8952 69.6522 23.4671 65.5203 23.4671H57.3912V7.74785H65.0712C69.001 7.74785 71.0221 9.38714 71.0221 11.8349C71.0221 13.4068 70.2137 14.6194 68.9337 15.2931ZM64.6221 10.4875H61.0066V14.1928H64.6221C66.3961 14.1928 67.3617 13.564 67.3617 12.3289C67.3617 11.0938 66.3961 10.4875 64.6221 10.4875ZM65.2508 20.7275C67.1372 20.7275 68.1477 20.1436 68.1477 18.7963C68.1477 17.4714 67.1372 16.8426 65.2508 16.8426H61.0066V20.7275H65.2508ZM82.9833 11.3857H86.4865V23.4671H83.163V22.03C82.2423 23.0854 80.8949 23.6468 79.4128 23.6468C76.3812 23.6468 74.2479 21.9401 74.2479 18.2124V11.3857H77.7511V17.6959C77.7511 19.717 78.6493 20.6152 80.1988 20.6152C81.8156 20.6152 82.9833 19.5822 82.9833 17.3591V11.3857ZM98.5347 6.80469H102.038V23.4671H98.6919V22.0749C97.8161 23.1303 96.5361 23.6468 94.9192 23.6468C91.5059 23.6468 88.8785 21.2215 88.8785 17.4264C88.8785 13.6314 91.5059 11.2061 94.9192 11.2061C96.4013 11.2061 97.6589 11.6777 98.5347 12.6657V6.80469ZM95.5255 20.7724C97.2547 20.7724 98.602 19.5149 98.602 17.4264C98.602 15.338 97.2547 14.0805 95.5255 14.0805C93.774 14.0805 92.4266 15.338 92.4266 17.4264C92.4266 19.5149 93.774 20.7724 95.5255 20.7724ZM114.083 6.80469H117.586V23.4671H114.24V22.0749C113.364 23.1303 112.084 23.6468 110.468 23.6468C107.054 23.6468 104.427 21.2215 104.427 17.4264C104.427 13.6314 107.054 11.2061 110.468 11.2061C111.95 11.2061 113.207 11.6777 114.083 12.6657V6.80469ZM111.074 20.7724C112.803 20.7724 114.15 19.5149 114.15 17.4264C114.15 15.338 112.803 14.0805 111.074 14.0805C109.322 14.0805 107.975 15.338 107.975 17.4264C107.975 19.5149 109.322 20.7724 111.074 20.7724ZM129.452 11.3857H132.82L127.364 24.2082C126.196 27.1275 124.534 28.0033 122.356 28.0033C121.121 28.0033 119.773 27.5991 118.987 26.9029L120.267 24.4103C120.806 24.8819 121.547 25.1738 122.244 25.1738C123.209 25.1738 123.748 24.7471 124.22 23.6693L124.265 23.557L119.032 11.3857H122.648L126.039 19.5822L129.452 11.3857Z" fill="white"/>
</g>
<defs>
<clipPath id="clip0_1251_1076">
<rect width="132.828" height="32" fill="white"/>
</clipPath>
</defs>
</svg>
