<svg width="20" height="20" viewBox="0 0 20 20" fill="none" xmlns="http://www.w3.org/2000/svg">
<path fill-rule="evenodd" clip-rule="evenodd" d="M5.80764 2.05862C5.8657 2.00041 5.93467 1.95423 6.0106 1.92273C6.08653 1.89122 6.16793 1.875 6.25014 1.875C6.33235 1.875 6.41375 1.89122 6.48968 1.92273C6.56561 1.95423 6.63458 2.00041 6.69264 2.05862L14.1926 9.55862C14.2508 9.61667 14.297 9.68564 14.3285 9.76158C14.36 9.83751 14.3763 9.91891 14.3763 10.0011C14.3763 10.0833 14.36 10.1647 14.3285 10.2407C14.297 10.3166 14.2508 10.3856 14.1926 10.4436L6.69264 17.9436C6.57528 18.061 6.41611 18.1269 6.25014 18.1269C6.08417 18.1269 5.925 18.061 5.80764 17.9436C5.69028 17.8263 5.62435 17.6671 5.62435 17.5011C5.62435 17.3351 5.69028 17.176 5.80764 17.0586L12.8664 10.0011L5.80764 2.94362C5.74944 2.88556 5.70326 2.81659 5.67175 2.74066C5.64024 2.66473 5.62402 2.58333 5.62402 2.50112C5.62402 2.41891 5.64024 2.33751 5.67175 2.26158C5.70326 2.18564 5.74944 2.11667 5.80764 2.05862Z" fill="#052C65"/>
</svg>
