<svg width="20" height="20" viewBox="0 0 20 20" fill="none" xmlns="http://www.w3.org/2000/svg">
<path d="M15.4996 11.5625V8.65625C15.4996 5.84375 13.4059 3.5625 10.6871 3.1875V1.875C10.6871 1.5 10.3746 1.1875 9.99961 1.1875C9.62461 1.1875 9.31211 1.5 9.31211 1.875V3.1875C6.59336 3.53125 4.49961 5.84375 4.49961 8.65625V11.5625C4.49961 11.7188 4.40586 12.875 3.99961 13.875C3.74961 14.5 3.81211 15.1875 4.18711 15.7188C4.56211 16.2813 5.15586 16.5938 5.84336 16.5938H7.37461C7.62461 17.8438 8.71836 18.8125 10.0309 18.8125C11.3434 18.8125 12.4684 17.875 12.6871 16.5938H14.2184C14.8746 16.5938 15.4996 16.2813 15.8746 15.7188C16.2496 15.1563 16.3121 14.4688 16.0621 13.875C15.6246 12.875 15.5309 11.6875 15.4996 11.5625ZM9.99961 17.4063C9.46836 17.4063 8.99961 17.0625 8.81211 16.5938H11.2184C10.9996 17.0625 10.5309 17.4063 9.99961 17.4063ZM14.6559 14.9375C14.5621 15.0938 14.3746 15.1875 14.1871 15.1875H5.81211C5.62461 15.1875 5.43711 15.0938 5.34336 14.9375C5.24961 14.7813 5.21836 14.5625 5.28086 14.4063C5.81211 13.125 5.90586 11.6875 5.90586 11.625V11.5938V8.6875C5.90586 6.4375 7.74961 4.59375 9.99961 4.59375C12.2496 4.59375 14.0934 6.4375 14.0934 8.6875V11.5625V11.5938C14.0934 11.6563 14.1871 13.0938 14.7184 14.375C14.7809 14.5938 14.7809 14.7813 14.6559 14.9375Z" fill="#080D25"/>
<path d="M4.0625 2.34002C3.78125 2.09002 3.34375 2.09002 3.0625 2.37127C1.4375 4.12127 0.53125 6.40252 0.53125 8.80877C0.53125 9.18377 0.84375 9.49627 1.21875 9.49627C1.59375 9.49627 1.90625 9.18377 1.90625 8.80877C1.90625 6.77752 2.65625 4.84002 4.0625 3.34002C4.375 3.05877 4.34375 2.62127 4.0625 2.34002Z" fill="#080D25"/>
<path d="M16.9372 2.4069C16.6872 2.12565 16.2184 2.0944 15.9372 2.37565C15.6559 2.62565 15.6247 3.0944 15.9059 3.37565C17.2809 4.87565 18.0622 6.81315 18.0622 8.8444C18.0622 9.2194 18.3747 9.5319 18.7497 9.5319C19.1247 9.5319 19.4372 9.2194 19.4372 8.8444C19.4372 6.43815 18.5622 4.1569 16.9372 2.4069Z" fill="#080D25"/>
</svg>
