<svg width="17" height="16" viewBox="0 0 17 16" fill="none" xmlns="http://www.w3.org/2000/svg">
<g id="search-alt" clip-path="url(#clip0_1160_3445)">
<path id="Vector" d="M15.8504 13.9281L11.7254 10.5781C13.4254 8.25313 13.2504 4.92813 11.1254 2.82813C10.0004 1.70313 8.50039 1.07812 6.90039 1.07812C5.30039 1.07812 3.80039 1.70313 2.67539 2.82813C0.350391 5.15313 0.350391 8.95313 2.67539 11.2781C3.80039 12.4031 5.30039 13.0281 6.90039 13.0281C8.42539 13.0281 9.85039 12.4531 10.9754 11.4281L15.1504 14.8031C15.2504 14.8781 15.3754 14.9281 15.5004 14.9281C15.6754 14.9281 15.8254 14.8531 15.9254 14.7281C16.1254 14.4781 16.1004 14.1281 15.8504 13.9281ZM6.90039 11.9031C5.60039 11.9031 4.40039 11.4031 3.47539 10.4781C1.57539 8.57813 1.57539 5.50313 3.47539 3.62813C4.40039 2.70313 5.60039 2.20313 6.90039 2.20313C8.20039 2.20313 9.40039 2.70313 10.3254 3.62813C12.2254 5.52813 12.2254 8.60313 10.3254 10.4781C9.42539 11.4031 8.20039 11.9031 6.90039 11.9031Z" fill="#6B7280"/>
</g>
<defs>
<clipPath id="clip0_1160_3445">
<rect width="16" height="16" fill="white" transform="translate(0.5)"/>
</clipPath>
</defs>
</svg>
